<svg id="Layer_1" data-name="Layer 1" xmlns="http://www.w3.org/2000/svg" viewBox="0 0 879.29 109.82"><defs><style>.cls-1{fill:#fff;}</style></defs><title>logo</title><path class="cls-1" d="M97.63,456.48a28.47,28.47,0,0,1,11.83,2.13,40.59,40.59,0,0,1,8.23,5q2.18,1.63,3.32.38t1.58-5.94h2.51q-.22,4.14-.33,10.14T124.67,484h-2.51q-.65-4.91-1.42-8.23a21.17,21.17,0,0,0-2.13-5.72,18.88,18.88,0,0,0-3.76-4.58,18.14,18.14,0,0,0-7-4.85A23.54,23.54,0,0,0,99.27,459a16.53,16.53,0,0,0-9.86,3,23.46,23.46,0,0,0-7,8.17,43.07,43.07,0,0,0-4.14,12,74.92,74.92,0,0,0-1.36,14.61,69.9,69.9,0,0,0,1.47,14.77,41.61,41.61,0,0,0,4.36,11.88,22.64,22.64,0,0,0,7.19,7.9,17.71,17.71,0,0,0,10,2.83,24.43,24.43,0,0,0,8.28-1.53,16.25,16.25,0,0,0,7-4.69,16.6,16.6,0,0,0,4.91-7.79,70.65,70.65,0,0,0,2.07-12h2.51q0,10.25.11,16.51t.33,10.52h-2.51q-.44-4.69-1.47-5.89t-3.43.33a57,57,0,0,1-8.56,5,27.39,27.39,0,0,1-11.61,2.13A39.35,39.35,0,0,1,78,532a32.24,32.24,0,0,1-13-13.52q-4.63-8.83-4.63-21.26a45.39,45.39,0,0,1,4.8-21.36,35.78,35.78,0,0,1,13.19-14.28A36.29,36.29,0,0,1,97.63,456.48Z" transform="translate(-60.35 -445.09)"/><path class="cls-1" d="M148.86,535.95q-7.19,0-10.46-3.71a13.65,13.65,0,0,1-3.27-9.37,12.54,12.54,0,0,1,2.18-7.58,16.55,16.55,0,0,1,5.61-4.85,52.39,52.39,0,0,1,7.25-3.22q3.81-1.36,7.19-2.62a23.25,23.25,0,0,0,5.56-2.83,4.84,4.84,0,0,0,2.18-4.09v-8a13.68,13.68,0,0,0-1-5.72,7.31,7.31,0,0,0-3.05-3.38,10.17,10.17,0,0,0-5.07-1.14,19,19,0,0,0-4.8.65,8.11,8.11,0,0,0-4.14,2.51,7.71,7.71,0,0,1,6,7.85,6.58,6.58,0,0,1-2.23,5.29,8.34,8.34,0,0,1-5.61,1.91,6.6,6.6,0,0,1-5.45-2.29,8.88,8.88,0,0,1-.33-10.41,14.75,14.75,0,0,1,4.25-3.65,22.19,22.19,0,0,1,7-2.94,37.29,37.29,0,0,1,9.27-1.09,31.7,31.7,0,0,1,8.5,1A14.18,14.18,0,0,1,174.7,482a11.65,11.65,0,0,1,3.38,6.21,45.8,45.8,0,0,1,.76,9v29.87a9,9,0,0,0,.6,3.87,2.19,2.19,0,0,0,2.13,1.14,4,4,0,0,0,2.29-.65q1-.65,2-1.42l1.2,1.85a22,22,0,0,1-5,2.94,16.45,16.45,0,0,1-6.32,1.09q-6.21,0-8.28-2.78a11,11,0,0,1-2.18-6.38,18,18,0,0,1-7.08,7A20,20,0,0,1,148.86,535.95Zm7.3-6.1a9.34,9.34,0,0,0,4.69-1.31,12.86,12.86,0,0,0,4.25-4.36v-22a10.65,10.65,0,0,1-4.14,3.6q-2.73,1.42-5.5,3.11a16.81,16.81,0,0,0-4.8,4.41,12.4,12.4,0,0,0-2,7.52q0,4.69,2.13,6.87A7.21,7.21,0,0,0,156.17,529.84Z" transform="translate(-60.35 -445.09)"/><path class="cls-1" d="M218.29,449.95a19.17,19.17,0,0,1,6.27.93,16.07,16.07,0,0,1,4.63,2.45,10.27,10.27,0,0,1,2.67,3.27,9.2,9.2,0,0,1,1,4.36,6.93,6.93,0,0,1-2,5,6.78,6.78,0,0,1-5.07,2.07,7.77,7.77,0,0,1-5.4-1.91,6.74,6.74,0,0,1-2.13-5.29,7.19,7.19,0,0,1,1.47-4.52,7.75,7.75,0,0,1,4.2-2.67,2.81,2.81,0,0,0-1.42-1.31,6.66,6.66,0,0,0-2.94-.54,7.67,7.67,0,0,0-3.76.87,7.06,7.06,0,0,0-2.56,2.4,14.43,14.43,0,0,0-1.53,5.45,99,99,0,0,0-.44,10.9v7.52H223v2.18H211.32V524q0,5.34,2.89,7.14a14.64,14.64,0,0,0,7.79,1.8v2.29l-7.63-.27q-4.91-.16-10.46-.16-3.92,0-7.85.16t-5.89.27v-2.29q4,0,5.72-1.63t1.69-6.21V481.12h-7.85v-2.18h7.85q0-9.7,1.47-14.77a21.24,21.24,0,0,1,5-8.77,17.15,17.15,0,0,1,6-3.92A21.68,21.68,0,0,1,218.29,449.95Z" transform="translate(-60.35 -445.09)"/><path class="cls-1" d="M253.28,477.3q9.59,0,15,5.78t5.45,18.42H237l-.11-2.07h24.2a43,43,0,0,0-.65-9.86,18.83,18.83,0,0,0-2.78-7.25,5.81,5.81,0,0,0-5-2.72q-4.14,0-7.19,4.85t-3.81,15.86l.44.65a25.38,25.38,0,0,0-.27,3.05q-.06,1.63-.05,3.27A30.69,30.69,0,0,0,244,519.7a16.09,16.09,0,0,0,5.67,7.19,12.94,12.94,0,0,0,7.19,2.29,18,18,0,0,0,7.79-1.91q4-1.91,7-7.58l2.07.87a25.85,25.85,0,0,1-4,7.58,21.79,21.79,0,0,1-7.14,6.16,21,21,0,0,1-10.25,2.4,25.69,25.69,0,0,1-13.08-3.27,22,22,0,0,1-8.83-9.76q-3.16-6.48-3.16-15.86,0-9.92,3.32-16.68a24.05,24.05,0,0,1,9.21-10.3A25.49,25.49,0,0,1,253.28,477.3Zm11.45-31.06a4.9,4.9,0,0,1,1.74,3.6,6.84,6.84,0,0,1-1.64,4.47,23.65,23.65,0,0,1-4.09,4l-5.83,4.52q-3.38,2.62-8.07,7.08l-1.2-1a95.78,95.78,0,0,0,5-9.59q1.69-3.92,2.89-6.76a21.19,21.19,0,0,1,2.94-5,6.43,6.43,0,0,1,4.09-2.4A5.42,5.42,0,0,1,264.73,446.24Z" transform="translate(-60.35 -445.09)"/><path class="cls-1" d="M339.72,458v2.18a16.58,16.58,0,0,0-5.29.82,4.1,4.1,0,0,0-2.45,2.62,19.77,19.77,0,0,0-.65,5.94v54.06a19.84,19.84,0,0,0,.65,5.89,3.93,3.93,0,0,0,2.45,2.62,20,20,0,0,0,5.29.87v2.18q-2.73-.22-7-.27t-8.61-.05q-4.91,0-9.16.05t-7,.27V533a20.39,20.39,0,0,0,5.4-.87,3.78,3.78,0,0,0,2.4-2.62,21.58,21.58,0,0,0,.6-5.89V469.56a21.5,21.5,0,0,0-.6-5.94,3.93,3.93,0,0,0-2.4-2.62,17,17,0,0,0-5.4-.82V458q2.72.11,7,.22t9.16.11q4.36,0,8.61-.11T339.72,458Z" transform="translate(-60.35 -445.09)"/><path class="cls-1" d="M385.72,477.3a18.85,18.85,0,0,1,7.36,1.2,13.43,13.43,0,0,1,4.52,3.05,11.74,11.74,0,0,1,2.78,5.34,37.9,37.9,0,0,1,.82,8.83V525q0,4.58,1.69,6.21t5.72,1.63v2.29q-2-.11-6-.27t-7.9-.16q-4,0-7.85.16t-5.67.27v-2.29q3.49,0,4.9-1.63t1.42-6.21V492a23.45,23.45,0,0,0-.54-5.29,6.62,6.62,0,0,0-2.18-3.71,7.14,7.14,0,0,0-4.69-1.36,10.89,10.89,0,0,0-8.83,4.31,16.5,16.5,0,0,0-3.49,10.74V525q0,4.58,1.42,6.21t4.9,1.63v2.29q-1.85-.11-5.56-.27t-7.52-.16q-4,0-8.18.16t-6.21.27v-2.29q4,0,5.72-1.63T354,525V490.71q0-4.91-1.58-7.25t-5.83-2.34v-2.29q3.49.33,6.76.33a73.63,73.63,0,0,0,7.68-.38,48.34,48.34,0,0,0,6.7-1.14v10.9q2.72-6.21,7.52-8.72A22.25,22.25,0,0,1,385.72,477.3Z" transform="translate(-60.35 -445.09)"/><path class="cls-1" d="M439,477.3a19.47,19.47,0,0,1,8.61,1.85,11.66,11.66,0,0,1,5.67,6.21L452,486.46a10.54,10.54,0,0,0-4.14-4.69,11.47,11.47,0,0,0-5.89-1.53q-5.89,0-9.43,6.59T429,507.06a62.33,62.33,0,0,0,1.42,14.77q1.42,5.62,4.09,8.12a9,9,0,0,0,6.38,2.51,9.72,9.72,0,0,0,7.08-3.22q3.16-3.21,3.71-9.21l.76,3.05q-1.42,6.65-5.34,10.14t-10.35,3.49a21.21,21.21,0,0,1-11.61-3.22,20.67,20.67,0,0,1-7.85-9.81q-2.78-6.59-2.78-16.73,0-9.92,3.27-16.51a22.8,22.8,0,0,1,8.83-9.86A24,24,0,0,1,439,477.3Zm26.05-27.47V523.3q0,4.91,1.64,7.25t5.78,2.34v2.29q-3.38-.33-6.76-.33-4,0-7.63.33a38.35,38.35,0,0,0-6.76,1.2V462.92q0-4.91-1.58-7.25t-5.83-2.34V451q3.49.33,6.76.33a73.29,73.29,0,0,0,7.74-.38A48.37,48.37,0,0,0,465.07,449.84Z" transform="translate(-60.35 -445.09)"/><path class="cls-1" d="M504.85,477.3q9.59,0,15,5.78t5.45,18.42H488.61l-.11-2.07h24.2a43,43,0,0,0-.65-9.86,18.84,18.84,0,0,0-2.78-7.25,5.82,5.82,0,0,0-5-2.72q-4.14,0-7.19,4.85T493.3,500.3l.44.65a25.38,25.38,0,0,0-.27,3.05q-.06,1.63-.05,3.27a30.69,30.69,0,0,0,2.18,12.43,16.09,16.09,0,0,0,5.67,7.19,12.94,12.94,0,0,0,7.19,2.29,18,18,0,0,0,7.79-1.91q4-1.91,7-7.58l2.07.87a25.85,25.85,0,0,1-4,7.58,21.79,21.79,0,0,1-7.14,6.16,21,21,0,0,1-10.25,2.4,25.69,25.69,0,0,1-13.08-3.27,22,22,0,0,1-8.83-9.76q-3.16-6.48-3.16-15.86,0-9.92,3.32-16.68a24.05,24.05,0,0,1,9.21-10.3A25.49,25.49,0,0,1,504.85,477.3Z" transform="translate(-60.35 -445.09)"/><path class="cls-1" d="M552.92,477.74v66.6q0,4.9,2.67,6.59a13.7,13.7,0,0,0,7.36,1.69v2.29l-7.36-.27q-4.74-.16-10.08-.16-3.71,0-7.41.16t-5.67.27v-2.29q3.7,0,5.23-1.53t1.53-5.67V490.82q0-4.91-1.53-7.25t-5.89-2.34v-2.29q3.49.33,6.76.33a73.27,73.27,0,0,0,7.74-.38A48.44,48.44,0,0,0,552.92,477.74ZM570,477.3a17.54,17.54,0,0,1,14.06,6.87q5.67,6.87,5.67,20.38a45.73,45.73,0,0,1-2.89,16.9,24.38,24.38,0,0,1-8.5,11.28,23.05,23.05,0,0,1-13.68,4,18.53,18.53,0,0,1-8.17-1.74,11.45,11.45,0,0,1-5.23-4.69l1.09-1.53a10.32,10.32,0,0,0,3.6,3.71,10.14,10.14,0,0,0,5.45,1.42,10.52,10.52,0,0,0,8.28-3.43,20.33,20.33,0,0,0,4.31-9.65,73.5,73.5,0,0,0,1.25-14.39,70.16,70.16,0,0,0-1.2-14.5q-1.2-5.45-3.6-7.9a7.67,7.67,0,0,0-5.67-2.45,11.06,11.06,0,0,0-8,3.54q-3.54,3.54-4.31,10.3l-.76-3.05a19.61,19.61,0,0,1,6.65-11.12A18.1,18.1,0,0,1,570,477.3Z" transform="translate(-60.35 -445.09)"/><path class="cls-1" d="M624.53,477.3q9.59,0,15,5.78T645,501.5H608.29l-.11-2.07h24.2a43,43,0,0,0-.65-9.86,18.84,18.84,0,0,0-2.78-7.25,5.82,5.82,0,0,0-5-2.72q-4.14,0-7.19,4.85T613,500.3l.44.65a25.48,25.48,0,0,0-.27,3.05q-.06,1.63-.05,3.27a30.7,30.7,0,0,0,2.18,12.43,16.1,16.1,0,0,0,5.67,7.19,12.94,12.94,0,0,0,7.19,2.29,18,18,0,0,0,7.79-1.91q4-1.91,7-7.58l2.07.87a25.85,25.85,0,0,1-4,7.58,21.79,21.79,0,0,1-7.14,6.16,21,21,0,0,1-10.25,2.4,25.7,25.7,0,0,1-13.08-3.27,22,22,0,0,1-8.83-9.76q-3.16-6.48-3.16-15.86,0-9.92,3.32-16.68a24.05,24.05,0,0,1,9.21-10.3A25.5,25.5,0,0,1,624.53,477.3Z" transform="translate(-60.35 -445.09)"/><path class="cls-1" d="M690.8,477.3a18.85,18.85,0,0,1,7.36,1.2,13.42,13.42,0,0,1,4.52,3.05,11.74,11.74,0,0,1,2.78,5.34,37.9,37.9,0,0,1,.82,8.83V525q0,4.58,1.69,6.21t5.72,1.63v2.29q-2-.11-6-.27t-7.9-.16q-4,0-7.85.16t-5.67.27v-2.29q3.49,0,4.91-1.63t1.42-6.21V492a23.48,23.48,0,0,0-.54-5.29,6.62,6.62,0,0,0-2.18-3.71,7.15,7.15,0,0,0-4.69-1.36,10.89,10.89,0,0,0-8.83,4.31,16.5,16.5,0,0,0-3.49,10.74V525q0,4.58,1.42,6.21t4.9,1.63v2.29q-1.85-.11-5.56-.27t-7.52-.16q-4,0-8.17.16t-6.21.27v-2.29q4,0,5.72-1.63t1.69-6.21V490.71q0-4.91-1.58-7.25t-5.83-2.34v-2.29q3.49.33,6.76.33a73.63,73.63,0,0,0,7.68-.38,48.38,48.38,0,0,0,6.7-1.14v10.9q2.72-6.21,7.52-8.72A22.25,22.25,0,0,1,690.8,477.3Z" transform="translate(-60.35 -445.09)"/><path class="cls-1" d="M744.1,477.3a19.47,19.47,0,0,1,8.61,1.85,11.67,11.67,0,0,1,5.67,6.21l-1.31,1.09a10.54,10.54,0,0,0-4.14-4.69,11.47,11.47,0,0,0-5.89-1.53q-5.89,0-9.43,6.59t-3.54,20.22a62.31,62.31,0,0,0,1.42,14.77q1.42,5.62,4.09,8.12a9,9,0,0,0,6.38,2.51,9.72,9.72,0,0,0,7.08-3.22q3.16-3.21,3.71-9.21l.76,3.05q-1.42,6.65-5.34,10.14t-10.35,3.49a21.21,21.21,0,0,1-11.61-3.22,20.68,20.68,0,0,1-7.85-9.81q-2.78-6.59-2.78-16.73,0-9.92,3.27-16.51a22.8,22.8,0,0,1,8.83-9.86A24,24,0,0,1,744.1,477.3Zm26.05-27.47V523.3q0,4.91,1.63,7.25t5.78,2.34v2.29q-3.38-.33-6.76-.33-4,0-7.63.33a38.36,38.36,0,0,0-6.76,1.2V462.92q0-4.91-1.58-7.25T749,453.32V451q3.49.33,6.76.33a73.3,73.3,0,0,0,7.74-.38A48.37,48.37,0,0,0,770.15,449.84Z" transform="translate(-60.35 -445.09)"/><path class="cls-1" d="M809.94,477.3q9.59,0,15,5.78t5.45,18.42H793.7l-.11-2.07h24.2a43,43,0,0,0-.65-9.86,18.84,18.84,0,0,0-2.78-7.25,5.82,5.82,0,0,0-5-2.72q-4.14,0-7.19,4.85t-3.82,15.86l.44.65a25.48,25.48,0,0,0-.27,3.05q-.06,1.63-.05,3.27a30.7,30.7,0,0,0,2.18,12.43,16.1,16.1,0,0,0,5.67,7.19,12.94,12.94,0,0,0,7.19,2.29,18,18,0,0,0,7.79-1.91q4-1.91,7-7.58l2.07.87a25.85,25.85,0,0,1-4,7.58,21.79,21.79,0,0,1-7.14,6.16,21,21,0,0,1-10.25,2.4A25.7,25.7,0,0,1,796,533.44a22,22,0,0,1-8.83-9.76Q784,517.2,784,507.82q0-9.92,3.32-16.68a24.05,24.05,0,0,1,9.21-10.3A25.5,25.5,0,0,1,809.94,477.3Z" transform="translate(-60.35 -445.09)"/><path class="cls-1" d="M876.21,477.3a18.85,18.85,0,0,1,7.36,1.2,13.42,13.42,0,0,1,4.52,3.05,11.74,11.74,0,0,1,2.78,5.34,37.9,37.9,0,0,1,.82,8.83V525q0,4.58,1.69,6.21t5.72,1.63v2.29q-2-.11-6-.27t-7.9-.16q-4,0-7.85.16t-5.67.27v-2.29q3.49,0,4.91-1.63T878,525V492a23.48,23.48,0,0,0-.54-5.29,6.62,6.62,0,0,0-2.18-3.71,7.15,7.15,0,0,0-4.69-1.36,10.89,10.89,0,0,0-8.83,4.31,16.5,16.5,0,0,0-3.49,10.74V525q0,4.58,1.42,6.21t4.9,1.63v2.29q-1.85-.11-5.56-.27t-7.52-.16q-4,0-8.17.16t-6.21.27v-2.29q4,0,5.72-1.63t1.69-6.21V490.71q0-4.91-1.58-7.25t-5.83-2.34v-2.29q3.49.33,6.76.33a73.63,73.63,0,0,0,7.68-.38,48.38,48.38,0,0,0,6.7-1.14v10.9q2.72-6.21,7.52-8.72A22.25,22.25,0,0,1,876.21,477.3Z" transform="translate(-60.35 -445.09)"/><path class="cls-1" d="M923.95,461v18h14v2.18h-14V524.5q0,3.92,1.42,5.56a5,5,0,0,0,4,1.64,6.61,6.61,0,0,0,4.58-1.91,16.25,16.25,0,0,0,3.71-6.38l2,.87a21.59,21.59,0,0,1-5.07,8.88q-3.43,3.54-9.65,3.54a18.57,18.57,0,0,1-6.27-.93,11.33,11.33,0,0,1-7.63-8.67,42.12,42.12,0,0,1-.82-9.27V481.12h-9.59v-2.18h9.59V463.79a44.89,44.89,0,0,0,7.3-.76A27.7,27.7,0,0,0,923.95,461Z" transform="translate(-60.35 -445.09)"/></svg>